<?xml version="1.0" encoding="UTF-8" standalone="no"?>
<!-- Created with Inkscape (http://www.inkscape.org/) -->

<svg
   xmlns:dc="http://purl.org/dc/elements/1.1/"
   xmlns:cc="http://creativecommons.org/ns#"
   xmlns:rdf="http://www.w3.org/1999/02/22-rdf-syntax-ns#"
   xmlns:svg="http://www.w3.org/2000/svg"
   xmlns="http://www.w3.org/2000/svg"
   xmlns:xlink="http://www.w3.org/1999/xlink"
   xmlns:sodipodi="http://sodipodi.sourceforge.net/DTD/sodipodi-0.dtd"
   xmlns:inkscape="http://www.inkscape.org/namespaces/inkscape"
   width="1024"
   height="1024"
   id="svg6758"
   version="1.1"
   inkscape:version="0.48.4 r9939"
   sodipodi:docname="panda_unhook.svg">
  <defs
     id="defs6760">
    <radialGradient
       inkscape:collect="always"
       xlink:href="#linearGradient4265"
       id="radialGradient5798"
       cx="953.54358"
       cy="1529.6313"
       fx="953.54358"
       fy="1529.6313"
       r="35.167046"
       gradientTransform="matrix(0.91057851,0,0,0.4105007,-707.44,-531.97485)"
       gradientUnits="userSpaceOnUse" />
    <linearGradient
       id="linearGradient4265">
      <stop
         style="stop-color:#e8dabf;stop-opacity:1;"
         offset="0"
         id="stop4267" />
      <stop
         style="stop-color:#cab99c;stop-opacity:1;"
         offset="1"
         id="stop4269" />
    </linearGradient>
    <linearGradient
       inkscape:collect="always"
       xlink:href="#linearGradient5784"
       id="linearGradient5820"
       x1="951.36688"
       y1="1573.8931"
       x2="951.36688"
       y2="1549.8159"
       gradientUnits="userSpaceOnUse"
       gradientTransform="matrix(0.91057853,0,0,0.91057853,-707.44002,-1309.9007)" />
    <linearGradient
       id="linearGradient5784">
      <stop
         style="stop-color:#000000;stop-opacity:1;"
         offset="0"
         id="stop5786" />
      <stop
         style="stop-color:#000000;stop-opacity:0;"
         offset="1"
         id="stop5788" />
    </linearGradient>
    <radialGradient
       inkscape:collect="always"
       xlink:href="#linearGradient4265"
       id="radialGradient5800"
       cx="893.36554"
       cy="1532.4816"
       fx="893.36554"
       fy="1532.4816"
       r="25.288971"
       gradientTransform="matrix(0.74246431,0,0,0.36283065,-553.16167,-461.60707)"
       gradientUnits="userSpaceOnUse" />
    <linearGradient
       id="linearGradient6787">
      <stop
         style="stop-color:#e8dabf;stop-opacity:1;"
         offset="0"
         id="stop6789" />
      <stop
         style="stop-color:#cab99c;stop-opacity:1;"
         offset="1"
         id="stop6791" />
    </linearGradient>
    <linearGradient
       inkscape:collect="always"
       xlink:href="#linearGradient5784"
       id="linearGradient5818"
       x1="892.64349"
       y1="1568.7983"
       x2="892.64349"
       y2="1546.287"
       gradientUnits="userSpaceOnUse"
       gradientTransform="matrix(0.74246432,0,0,0.76505243,-553.16167,-1085.5499)" />
    <linearGradient
       id="linearGradient6794">
      <stop
         style="stop-color:#000000;stop-opacity:1;"
         offset="0"
         id="stop6796" />
      <stop
         style="stop-color:#000000;stop-opacity:0;"
         offset="1"
         id="stop6798" />
    </linearGradient>
    <radialGradient
       inkscape:collect="always"
       xlink:href="#linearGradient4265"
       id="radialGradient5802"
       cx="848.60095"
       cy="1535.6573"
       fx="848.60095"
       fy="1535.6573"
       r="19.031561"
       gradientTransform="matrix(0.74246431,0,0,0.41268874,-553.16167,-539.49152)"
       gradientUnits="userSpaceOnUse" />
    <linearGradient
       id="linearGradient6801">
      <stop
         style="stop-color:#e8dabf;stop-opacity:1;"
         offset="0"
         id="stop6803" />
      <stop
         style="stop-color:#cab99c;stop-opacity:1;"
         offset="1"
         id="stop6805" />
    </linearGradient>
    <linearGradient
       inkscape:collect="always"
       xlink:href="#linearGradient5784"
       id="linearGradient5816"
       x1="846.43494"
       y1="1565.9257"
       x2="846.43494"
       y2="1548.5825"
       gradientUnits="userSpaceOnUse"
       gradientTransform="matrix(0.74246432,0,0,0.76505243,-553.16167,-1085.5499)" />
    <linearGradient
       id="linearGradient6808">
      <stop
         style="stop-color:#000000;stop-opacity:1;"
         offset="0"
         id="stop6810" />
      <stop
         style="stop-color:#000000;stop-opacity:0;"
         offset="1"
         id="stop6812" />
    </linearGradient>
    <radialGradient
       inkscape:collect="always"
       xlink:href="#linearGradient4265"
       id="radialGradient4271"
       cx="794.96643"
       cy="1526.613"
       fx="794.96643"
       fy="1526.613"
       r="36.153839"
       gradientTransform="matrix(1.100789,0.00596107,-0.0019664,0.36312052,-840.16485,-463.62368)"
       gradientUnits="userSpaceOnUse" />
    <linearGradient
       id="linearGradient6815">
      <stop
         style="stop-color:#e8dabf;stop-opacity:1;"
         offset="0"
         id="stop6817" />
      <stop
         style="stop-color:#cab99c;stop-opacity:1;"
         offset="1"
         id="stop6819" />
    </linearGradient>
    <linearGradient
       inkscape:collect="always"
       xlink:href="#linearGradient5784"
       id="linearGradient5790"
       x1="791.7981"
       y1="1571.5873"
       x2="791.7981"
       y2="1547.2496"
       gradientUnits="userSpaceOnUse"
       gradientTransform="translate(0,-2484)" />
    <linearGradient
       id="linearGradient6822">
      <stop
         style="stop-color:#000000;stop-opacity:1;"
         offset="0"
         id="stop6824" />
      <stop
         style="stop-color:#000000;stop-opacity:0;"
         offset="1"
         id="stop6826" />
    </linearGradient>
    <linearGradient
       y2="1547.2496"
       x2="791.7981"
       y1="1571.5873"
       x1="791.7981"
       gradientTransform="matrix(0.88724244,0,0,0.88724244,-673.40443,-1273.6999)"
       gradientUnits="userSpaceOnUse"
       id="linearGradient6857"
       xlink:href="#linearGradient5784"
       inkscape:collect="always" />
  </defs>
  <sodipodi:namedview
     id="base"
     pagecolor="#ffffff"
     bordercolor="#666666"
     borderopacity="1.0"
     inkscape:pageopacity="0.0"
     inkscape:pageshadow="2"
     inkscape:zoom="1.979899"
     inkscape:cx="48.319161"
     inkscape:cy="908.62834"
     inkscape:document-units="px"
     inkscape:current-layer="layer1"
     showgrid="true"
     inkscape:window-width="1920"
     inkscape:window-height="1080"
     inkscape:window-x="0"
     inkscape:window-y="0"
     inkscape:window-maximized="0">
    <inkscape:grid
       type="xygrid"
       id="grid6766"
       empspacing="2"
       visible="true"
       enabled="true"
       snapvisiblegridlinesonly="true"
       spacingx="32px"
       spacingy="32px" />
  </sodipodi:namedview>
  <metadata
     id="metadata6763">
    <rdf:RDF>
      <cc:Work
         rdf:about="">
        <dc:format>image/svg+xml</dc:format>
        <dc:type
           rdf:resource="http://purl.org/dc/dcmitype/StillImage" />
        <dc:title />
      </cc:Work>
    </rdf:RDF>
  </metadata>
  <g
     inkscape:label="Calque 1"
     inkscape:groupmode="layer"
     id="layer1"
     transform="translate(0,-28.362183)">
    <path
       sodipodi:nodetypes="ccsscsccc"
       inkscape:connector-curvature="0"
       id="path4316"
       d="m 5.9301884,96.002744 c 2.113864,-0.905963 50.7170576,-0.830459 52.2269576,0 0.905937,0.830459 5.978905,4.697786 5.765372,4.697786 -0.213532,0 0.213533,4.91124 0,7.26013 -0.213532,2.34879 -18.790836,10.8901 -18.790836,10.8901 0,0 -30.413509,0.94545 -34.378702,-0.64059 -5.338306,-2.13533 -10.03601486,-7.47369 -10.03601486,-7.47369 l 0,-10.03595 c 0,0 3.77881876,-4.697786 5.21322326,-4.697786 z"
       style="fill:url(#linearGradient6857);fill-opacity:1;stroke:none" />
    <path
       style="fill:url(#radialGradient4271);fill-opacity:1;stroke:#000000;stroke-width:0.88724244px;stroke-linecap:butt;stroke-linejoin:miter;stroke-opacity:1"
       d="m 5.9301884,93.617007 c 2.113864,-0.905963 50.7170576,-0.830459 52.2269576,0 0.905937,0.830461 5.978905,4.697773 5.765372,4.697773 -0.213532,0 0.213533,4.91124 0,7.26013 -0.213532,2.34879 -18.790836,10.8901 -18.790836,10.8901 0,0 -30.413509,0.94544 -34.378702,-0.64059 -5.338306,-2.13533 -10.03601486,-7.47369 -10.03601486,-7.47369 l 0,-10.03595 c 0,0 3.77881876,-4.697773 5.21322326,-4.697773 z"
       id="path4222"
       inkscape:connector-curvature="0"
       sodipodi:nodetypes="ccsscsccc" />
    <path
       sodipodi:nodetypes="ccccccccc"
       inkscape:connector-curvature="0"
       id="path5804"
       d="m 63.850006,99.477504 c 0,0 1.889706,-3.399818 3.2164,-4.050802 1.326695,-0.260422 19.139493,-0.390558 19.834433,0 0.821284,0.650984 4.467214,4.050802 4.467214,4.050802 l 0,5.339616 c 0,0 -6.892986,5.65397 -8.219681,5.52376 0,0 -14.953776,0.58588 -16.97541,0 -2.021634,-2.14827 -2.322956,-5.15553 -2.322956,-5.15553 z"
       style="fill:url(#linearGradient5816);fill-opacity:1;stroke:none" />
    <path
       style="fill:url(#radialGradient5802);fill-opacity:1;stroke:#000000;stroke-width:0.7424643px;stroke-linecap:butt;stroke-linejoin:miter;stroke-opacity:1"
       d="m 63.850006,97.377368 c 0,0 1.889706,-3.299437 3.2164,-3.931201 1.326695,-0.252735 19.139493,-0.379028 19.834433,0 0.821284,0.631764 4.467214,3.931201 4.467214,3.931201 l 0,5.181952 c 0,0 -6.892986,5.48704 -8.219681,5.36067 0,0 -14.953776,0.56858 -16.97541,0 -2.021634,-2.08484 -2.322956,-5.00332 -2.322956,-5.00332 z"
       id="path4224"
       inkscape:connector-curvature="0"
       sodipodi:nodetypes="ccccccccc" />
    <path
       sodipodi:nodetypes="cccccccccc"
       inkscape:connector-curvature="0"
       id="path5806"
       d="m 91.368053,99.477504 c 0,0 3.109912,-3.790379 3.931203,-4.050802 1.705745,-0.781194 26.664184,-0.585876 28.054064,0 1.45304,0.585877 4.82459,4.050802 4.82459,4.050802 l 0,6.996716 c -0.18954,0.78121 -7.35689,6.26028 -7.86231,6.26028 -0.63176,0.52078 -18.24604,0.32545 -18.94099,0 -0.7581,0.13021 -6.378585,-2.90865 -6.947164,-4.14558 0,0 -2.617159,-2.13321 -3.059393,-3.95594 z"
       style="fill:url(#linearGradient5818);fill-opacity:1;stroke:none" />
    <path
       style="fill:url(#radialGradient5800);fill-opacity:1;stroke:#000000;stroke-width:0.7424643px;stroke-linecap:butt;stroke-linejoin:miter;stroke-opacity:1"
       d="m 91.368053,97.377368 c 0,0 3.109912,-3.678467 3.931203,-3.931201 1.705745,-0.75813 26.664184,-0.568579 28.054064,0 1.45304,0.56858 4.82459,3.931201 4.82459,3.931201 l 0,6.790132 c -0.18954,0.75814 -7.35689,6.07544 -7.86231,6.07544 -0.63176,0.5054 -18.24604,0.31585 -18.94099,0 -0.7581,0.12636 -6.378585,-2.82277 -6.947164,-4.02319 0,0 -2.617159,-2.07022 -3.059393,-3.83914 z"
       id="path4226"
       inkscape:connector-curvature="0"
       sodipodi:nodetypes="cccccccccc" />
    <path
       sodipodi:nodetypes="cccccsscccc"
       inkscape:connector-curvature="0"
       id="path5808"
       d="m 128.3926,100.53925 c 0,0 0.9894,-3.58169 2.84894,-4.821351 0.92976,-0.464851 54.74725,-0.774812 55.44459,0 1.62708,0.77481 5.13125,3.736557 4.82133,4.821351 l 0,17.31273 c 0,0 -8.77931,4.36513 -11.62823,4.80339 -1.42447,0.21909 -12.70334,0.69815 -14.67114,0.50893 -1.28599,-0.12366 -10.15684,-5.82716 -11.91003,-6.37505 -3.50638,-1.09579 -19.52853,0.61345 -20.30333,-0.47132 -0.92977,-0.61984 -4.60213,-7.23191 -4.60213,-7.23191 z"
       style="fill:url(#linearGradient5820);fill-opacity:1;stroke:none" />
    <path
       style="fill:url(#radialGradient5798);fill-opacity:1;stroke:#000000;stroke-width:0.91057855px;stroke-linecap:butt;stroke-linejoin:miter;stroke-opacity:1"
       d="m 128.3926,98.209773 c 0,0 0.9894,-3.58167 2.84894,-4.821333 0.92976,-0.464851 54.74725,-0.774812 55.44459,0 1.62708,0.774812 5.13125,3.73656 4.82133,4.821333 l 0,17.312737 c 0,0 -8.77931,4.36513 -11.62823,4.80339 -1.42447,0.21908 -12.70334,0.69814 -14.67114,0.50892 -1.28599,-0.12365 -10.15684,-5.82716 -11.91003,-6.37505 -3.50638,-1.09579 -19.52853,0.61346 -20.30333,-0.47132 -0.92977,-0.61982 -4.60213,-7.23189 -4.60213,-7.23189 z"
       id="path4228"
       inkscape:connector-curvature="0"
       sodipodi:nodetypes="cccccsscccc" />
    <path
       style="fill:#b3a78d;fill-opacity:1;stroke:none"
       d="m 5.4469341,93.876525 c -0.2963301,0.120044 -0.5735132,0.178957 -0.9426947,0.471394 -0.5559816,0.440427 -1.1570263,1.02095 -1.7190323,1.608127 -1.124003,1.174443 -2.07947445,2.356693 -2.07947445,2.356693 l 0,10.037021 c 0,0 1.18044945,1.33743 3.02216955,2.9389 0.9208601,0.80082 2.0251394,1.66695 3.2162535,2.46769 1.1911141,0.80073 2.4639249,1.54566 3.7985063,2.07943 0.991298,0.39651 3.633612,0.61423 7.042487,0.74865 3.408874,0.13442 7.59554,0.18544 11.645057,0.16636 8.099024,-0.0382 15.6931,-0.27726 15.6931,-0.27726 0,0 4.645025,-2.14589 9.316046,-4.5748 2.335506,-1.21455 4.688579,-2.50114 6.460234,-3.6322 0.885823,-0.56552 1.634247,-1.09432 2.162653,-1.55267 0.528406,-0.45835 0.832828,-0.84315 0.859516,-1.13674 0.213533,-2.34888 -0.213532,-7.264381 0,-7.264381 0.160272,8.9e-5 -2.526538,-2.083156 -4.325306,-3.521199 -1.331254,1.203722 -2.775783,2.341611 -2.828086,2.550822 -0.10677,0.42703 -0.5268,1.835349 -0.5268,2.689498 0,0.85406 1.061878,2.24295 1.275411,2.88354 0.213533,0.6405 -0.429558,2.24295 -1.497222,2.88354 -1.067654,0.6405 -1.69544,0.41043 -1.802211,-0.44363 -0.106762,-0.85414 -6.850895,3.63752 -8.345624,4.49158 -1.494728,0.85415 -2.23177,1.16459 -3.299433,1.16459 -1.067663,0 0.106771,-0.73871 0,-1.91316 -0.106762,-1.17444 -2.13907,-1.59153 -2.245832,-1.1645 -0.106771,0.42703 -4.151922,3.93714 -4.685749,3.93714 -0.533836,0 -1.719033,-1.60813 -1.719033,-1.60813 0,0 -2.569871,0.85379 -4.491664,2.13488 -1.921794,1.28127 -2.029408,-0.31319 -2.883538,-0.52675 -0.854131,-0.21356 -2.772234,-0.41585 -4.90756,-0.41585 -2.135326,-9e-5 -2.869475,-0.21481 -3.937138,-0.74866 -1.067664,-0.53385 -0.748611,-2.99444 -0.748611,-2.99444 0,0 -3.852309,2.56617 -5.240276,2.24579 -1.387958,-0.3203 -0.840068,-0.9592 -1.0536,-1.38623 -0.213533,-0.42703 -0.120434,-0.85672 -1.0813269,-1.49731 -0.9609007,-0.6405 -3.7430534,-1.08128 -3.7430534,-1.08128 l 0.5268002,-1.80226 c 0,0 -1.1603712,-5.222042 -1.0536004,-6.182926 0.1067619,-0.960883 0.6377055,-1.922654 0.6377055,-2.883538 0,-0.353211 -0.2589062,-0.819191 -0.4990739,-1.247731 z"
       id="path4299"
       inkscape:connector-curvature="0" />
    <path
       style="fill:#a59777;fill-opacity:1;stroke:none"
       d="m 3.9219865,94.902446 c -0.3815941,0.344782 -0.7667372,0.66694 -1.1367794,1.0536 -1.124003,1.174443 -2.07947445,2.356693 -2.07947445,2.356693 l 0,10.037021 c 0,0 1.18044945,1.33743 3.02216955,2.9389 0.9208601,0.80082 2.0251394,1.66695 3.2162535,2.46769 1.1911141,0.80073 2.4639249,1.54566 3.7985063,2.07943 0.991298,0.39651 3.633612,0.61423 7.042487,0.74865 3.408874,0.13442 7.59554,0.18544 11.645057,0.16636 8.099024,-0.0382 15.6931,-0.27726 15.6931,-0.27726 0,0 4.645025,-2.14589 9.316046,-4.5748 2.335506,-1.21455 4.688579,-2.50114 6.460234,-3.6322 0.885823,-0.56552 1.634247,-1.09432 2.162653,-1.55267 0.528406,-0.45835 0.832828,-0.84315 0.859516,-1.13674 0.213533,-2.34888 -0.213532,-7.264381 0,-7.264381 0.145588,0 -2.164002,-1.781228 -3.937138,-3.188483 -0.431013,0.904633 -0.659993,1.51958 -0.970421,2.024066 -0.854131,1.387914 -0.759773,1.811661 -0.332716,2.772632 0.427065,0.960796 0.860758,0.196526 1.608127,1.691266 0.74736,1.49464 0.0027,3.76084 -0.637706,4.93528 -0.640598,1.17436 -2.136178,0.6295 -2.883538,0.41585 -0.747368,-0.21347 -3.318482,2.55491 -5.240275,2.66173 -1.921785,0.10673 -4.057573,1.29617 -5.018465,1.83003 -0.960902,0.53367 -3.632149,1.80216 -3.632149,1.80216 0,0 -1.279546,-2.24135 -1.386316,-4.26985 -0.106762,-2.02859 -1.372254,1.93223 -2.439917,3.85391 -1.067663,1.92177 -3.743054,0.85956 -3.743054,0.85956 0,0 -2.123757,-1.06895 -2.550822,-0.74865 -0.427065,0.32029 -5.036272,1.36564 -6.210697,0.83188 -1.174425,-0.53386 -6.406033,-1.36556 -7.153392,-0.83188 -0.74736,0.53385 -5.328841,0.74448 -6.182971,0.63775 -0.854131,-0.10683 -5.2332394,-2.78639 -5.7670754,-3.85401 -0.5338272,-1.0677 -3.0027209,-0.84838 -3.2162535,-1.27532 -0.2135326,-0.42712 0.020673,-1.91316 0.5545265,-1.91316 0.5338357,0 -0.967529,-3.95071 -1.6081269,-5.01851 -0.6405979,-1.06753 0.2189182,-3.843975 0.8595161,-5.018418 0.2262735,-0.414874 0.103071,-1.003737 -0.1109053,-1.608126 z"
       id="path4292"
       inkscape:connector-curvature="0" />
    <path
       style="fill:#837358;fill-opacity:1;stroke:none"
       d="m 62.895881,106.82476 c 0.04206,-0.0355 0.126699,-0.0763 0.166358,-0.1109 0.528406,-0.45835 0.832828,-0.84315 0.859516,-1.13674 0.213533,-2.34888 -0.213532,-7.264381 0,-7.264381 0.03797,0 -0.782902,-0.626127 -1.025874,-0.831701 -0.173988,0.355873 -0.439894,0.786275 -0.582252,1.996295 -0.213533,1.814857 -0.727921,3.522437 -0.194085,4.269767 0.441013,0.61752 0.721852,2.07064 0.776337,3.07766 z"
       id="path4314"
       inkscape:connector-curvature="0" />
    <path
       style="font-size:medium;font-style:normal;font-variant:normal;font-weight:normal;font-stretch:normal;text-indent:0;text-align:start;text-decoration:none;line-height:normal;letter-spacing:normal;word-spacing:normal;text-transform:none;direction:ltr;block-progression:tb;writing-mode:lr-tb;text-anchor:start;baseline-shift:baseline;color:#000000;fill:#000000;fill-opacity:1;fill-rule:nonzero;stroke:none;stroke-width:1px;marker:none;visibility:visible;display:inline;overflow:visible;enable-background:accumulate;font-family:Sans;-inkscape-font-specification:Sans"
       d="m 32.258291,92.51798 c -6.304434,-0.0089 -12.61248,0.05856 -17.495312,0.166358 -2.441416,0.05412 -4.529319,0.110639 -6.0720647,0.19404 -0.7713775,0.0417 -1.4004501,0.08872 -1.8853902,0.138676 -0.4086106,0.04259 -0.6487339,0.08961 -0.8872425,0.166358 -0.044539,0.0142 -0.1232202,0.0089 -0.1663579,0.0275 l 0.027682,0.0559 c -0.5364712,0.0559 -1.0192638,0.326062 -1.552674,0.748567 -0.5832731,0.462077 -1.204334,1.040116 -1.7744848,1.63581 -1.1403018,1.191478 -2.07947453,2.384465 -2.07947453,2.384553 l -0.1109053,0.110906 0,0.166269 0,10.037013 0,0.16627 0.1109053,0.13868 c 0,0 4.71158563,5.37261 10.20328663,7.56933 0.593486,0.23734 1.518383,0.39926 2.744907,0.52676 1.226524,0.12749 2.753699,0.20983 4.463938,0.27726 3.420471,0.13486 7.591885,0.18543 11.645057,0.16636 8.106353,-0.0382 15.720827,-0.27726 15.720827,-0.27726 l 0.08313,0 0.08313,-0.055 c 0,0 4.660383,-2.1395 9.343772,-4.57489 2.341691,-1.21765 4.667854,-2.48783 6.460234,-3.63211 0.896195,-0.57218 1.661149,-1.12502 2.218107,-1.60812 0.556957,-0.48311 0.974023,-0.87145 1.025874,-1.44177 0.111703,-1.22874 0.05341,-3.02372 0,-4.54712 -0.02671,-0.7617 -0.04889,-1.454101 -0.05545,-1.940842 -0.0035,-0.24337 -0.008,-0.440249 0,-0.554526 0.0027,-0.03815 -0.0018,-0.04259 0,-0.05501 0.0071,-0.01065 0.02768,-0.0275 0.02768,-0.0275 1.95e-4,-5.32e-4 0.02768,-0.138055 0.02768,-0.138676 4.4e-5,-6.21e-4 0.0044,-0.08251 0,-0.110905 -0.0093,-0.05678 -0.01562,-0.08429 -0.02768,-0.110905 -0.04827,-0.105405 -0.08606,-0.110994 -0.110905,-0.138676 -0.04969,-0.05501 -0.101022,-0.107889 -0.166358,-0.16627 -0.130682,-0.116938 -0.294636,-0.281699 -0.526801,-0.471392 -0.46432,-0.379296 -1.124455,-0.878458 -1.802211,-1.413998 -1.355511,-1.071256 -2.869936,-2.265753 -3.271706,-2.634047 l -0.05545,-0.0275 -0.02768,-0.02751 c -0.156944,-0.08606 -0.262029,-0.110994 -0.415895,-0.138676 -0.153865,-0.0275 -0.355961,-0.05944 -0.582253,-0.0834 -0.452582,-0.04702 -1.031481,-0.07098 -1.774484,-0.110905 -1.486016,-0.07985 -3.529877,-0.16689 -5.933434,-0.221811 -4.807115,-0.10984 -11.107699,-0.161655 -17.412133,-0.166358 z m 0,0.887242 c 6.299341,0.0089 12.587699,0.05678 17.384406,0.166358 2.39835,0.05501 4.43647,0.142491 5.905708,0.221811 0.734619,0.03993 1.320465,0.06654 1.746758,0.110905 0.213152,0.02218 0.380326,0.06211 0.499074,0.0834 0.118749,0.02129 0.201209,0.06211 0.138632,0.0275 0.540907,0.485501 1.926922,1.565453 3.24398,2.606277 0.677037,0.535007 1.319374,1.042243 1.774485,1.414087 0.207641,0.169552 0.360096,0.317899 0.471348,0.41585 -0.0018,0.01686 8.87e-4,0.03727 0,0.05501 -0.01083,0.16343 -0.0035,0.356228 0,0.60998 0.0071,0.507501 0.02884,1.208866 0.05545,1.968526 0.05332,1.51949 0.101829,3.31615 0,4.43621 -0.0018,0.0169 -0.221021,0.42596 -0.720884,0.85956 -0.499864,0.4336 -1.231741,0.96603 -2.107201,1.52499 -1.75092,1.11775 -4.075459,2.39316 -6.404781,3.60434 -4.630723,2.40797 -9.177769,4.49406 -9.232867,4.51943 -0.106265,0 -7.547665,0.23947 -15.582195,0.27726 -4.045852,0.0195 -8.220062,-0.0319 -11.617331,-0.16635 -1.698635,-0.0666 -3.212811,-0.15296 -4.408486,-0.27727 -1.195674,-0.1243 -2.097556,-0.28453 -2.495369,-0.44362 -5.0875631,-2.03507 -9.5885703,-7.07265 -9.7596661,-7.2643 l 0,-9.648756 c 0.067076,-0.0834 0.9027514,-1.13221 1.9685692,-2.245788 0.5538522,-0.578748 1.1348895,-1.133896 1.6635795,-1.552674 0.5286897,-0.418867 1.0203285,-0.637752 1.136779,-0.637752 l 0.1109054,0 0.083135,-0.05501 c -0.00985,0 0.3163374,-0.06299 0.7763371,-0.110905 0.4599997,-0.04791 1.0947951,-0.09733 1.8576639,-0.138676 1.5257454,-0.08251 3.6083524,-0.14045 6.0443384,-0.19404 4.871972,-0.107267 11.168244,-0.17106 17.467586,-0.166358 z m 31.580285,4.463896 c 0.02981,-0.0089 0.06308,8.9e-5 0.08313,0 -0.20104,0 -0.305806,0.141427 -0.360442,0.221811 0.02804,-0.04081 0.05572,-0.0834 0.05545,-0.0834 -3.54e-4,3.55e-4 0.139147,-0.111172 0.138632,-0.110905 -5.14e-4,2.66e-4 0.05341,-0.02218 0.08313,-0.02751 z"
       id="path4252"
       inkscape:connector-curvature="0" />
    <path
       style="fill:#b3a78d;fill-opacity:1;stroke:none"
       d="m 66.215973,94.173857 c -0.06942,0.06979 -0.139347,0.08635 -0.208818,0.162378 -0.363725,0.398183 -0.724957,0.870613 -1.044091,1.322551 -0.638267,0.903802 -1.113697,1.716874 -1.113697,1.716874 l 0,5.54531 c 0,0 0.06638,0.72673 0.394434,1.71695 0.164018,0.49515 0.406722,1.05735 0.719263,1.62415 0.312541,0.5668 0.701094,1.12617 1.206504,1.64737 0.505411,0.14212 1.817294,0.22853 3.503504,0.25519 1.68621,0.0267 3.758525,0.0126 5.754098,-0.0231 3.991147,-0.0713 7.726266,-0.23193 7.726266,-0.23193 0.331674,0.0312 1.000174,-0.26908 1.832958,-0.76571 0.832793,-0.49664 1.816506,-1.17814 2.761046,-1.85616 1.889082,-1.35597 3.619514,-2.73784 3.619514,-2.73784 l 0,-5.174087 c 0,0 -1.374672,-1.205911 -2.552221,-2.250558 l -0.58005,2.15775 c 0,0 -1.067293,1.084739 -1.067293,1.53141 0,0.446738 -1.429177,2.222575 -1.786554,3.294605 -0.357379,1.0722 -0.991812,0.99423 -1.438531,0.90492 -0.44672,-0.0894 -1.944136,0.35252 -3.016258,1.06729 -1.072134,0.71477 -4.199564,0.71826 -4.199564,0.0928 0,-0.62538 -0.540575,-1.71109 -0.719263,-2.15783 -0.178689,-0.44666 -1.436104,-0.96408 -1.97217,-0.69598 -0.536067,0.26803 -4.018454,1.51641 -4.73321,0.53361 -0.714755,-0.9828 -1.88283,-2.059079 -1.972171,-2.505816 -0.08935,-0.446672 0.09281,-1.339854 0.09281,-1.786595 0,-0.446666 -0.812071,-2.598624 -0.812071,-2.598624 0,0 -0.242437,-0.47399 -0.394434,-0.788795 z"
       id="path5840"
       inkscape:connector-curvature="0" />
    <path
       style="fill:#a59777;fill-opacity:1;stroke:none"
       d="m 64.939862,95.681951 c -0.623061,0.887022 -1.090495,1.693709 -1.090495,1.693709 l 0,5.54531 c 0,0 0.06638,0.72673 0.394434,1.71695 0.164018,0.49515 0.406722,1.05735 0.719263,1.62415 0.312541,0.5668 0.701094,1.12617 1.206504,1.64737 0.505411,0.14212 1.817294,0.22853 3.503504,0.25519 1.68621,0.0267 3.758525,0.0126 5.754098,-0.0231 3.991147,-0.0713 7.726266,-0.23193 7.726266,-0.23193 0.331674,0.0312 1.000174,-0.26908 1.832958,-0.76571 0.832793,-0.49664 1.816506,-1.17814 2.761046,-1.85616 1.889082,-1.35597 3.619514,-2.73784 3.619514,-2.73784 l 0,-5.174087 c 0,0 -1.412583,-1.248751 -2.621827,-2.320201 -0.08588,0.744097 0.11601,1.8794 0.11601,1.8794 0,0 0.638223,3.132238 -0.255222,3.132238 -0.893445,0 -1.625188,2.4917 -2.250596,3.92117 -0.625406,1.42954 -1.506756,0 -2.668236,0 -1.161475,0 -3.050895,1.15424 -3.94434,1.60098 -0.893436,0.44667 -3.381613,0 -3.828332,-0.0928 -0.446725,-0.0894 -0.458159,-0.25734 -0.904878,-1.50817 -0.446718,-1.25076 -3.664544,0.7089 -4.826017,0.4408 -1.161473,-0.26803 -1.061412,-1.32693 -1.50813,-2.04178 -0.446727,-0.7147 -2.691433,-1.70157 -2.691433,-2.50581 0,-0.804018 0.364305,-2.242242 0.185615,-3.225042 -0.08589,-0.472431 -0.622466,-0.754567 -1.229706,-0.974485 z"
       id="path5822"
       inkscape:connector-curvature="0" />
    <path
       style="fill:#837358;fill-opacity:1;stroke:none"
       d="m 89.812419,103.70984 c 0.507965,-0.39283 1.554535,-1.1601 1.554535,-1.1601 l 0,-5.17408 c 0,0 -0.660073,-0.568207 -0.904878,-0.788793 -0.01686,0.04009 -0.05851,0.134608 -0.06956,0.162376 -0.17869,0.446741 0.0928,3.317847 0.0928,3.317847 l -0.997686,1.32256 c 0,0 0.190412,1.12587 0.324828,2.32019 z"
       id="path5851"
       inkscape:connector-curvature="0" />
    <path
       style="fill:#837358;fill-opacity:1;stroke:none"
       d="m 63.849367,101.83045 0,1.09052 c 0,0 0.06638,0.72673 0.394434,1.71695 0.164018,0.49515 0.406722,1.05735 0.719263,1.62415 0.312541,0.5668 0.701094,1.12617 1.206504,1.64737 0.448568,0.12615 1.691772,0.19914 3.109071,0.23195 l -0.78887,-2.99302 c 0,0 -2.139099,-0.53227 -2.853846,-1.69371 -0.449548,-0.73051 -1.094727,-1.20665 -1.786556,-1.62421 z"
       id="path5849"
       inkscape:connector-curvature="0" />
    <path
       style="fill:#837358;fill-opacity:1;stroke:none"
       d="m 64.174196,96.86529 c -0.07466,0.124883 -0.324829,0.51037 -0.324829,0.51037 l 0,3.13231 1.252909,-0.626494 0.09281,-1.531258 c 0,0 -0.523371,-0.679279 -1.020888,-1.484928 z"
       id="path5842"
       inkscape:connector-curvature="0" />
    <path
       style="font-size:medium;font-style:normal;font-variant:normal;font-weight:normal;font-stretch:normal;text-indent:0;text-align:start;text-decoration:none;line-height:normal;letter-spacing:normal;word-spacing:normal;text-transform:none;direction:ltr;block-progression:tb;writing-mode:lr-tb;text-anchor:start;baseline-shift:baseline;color:#000000;fill:#000000;fill-opacity:1;fill-rule:nonzero;stroke:none;stroke-width:1px;marker:none;visibility:visible;display:inline;overflow:visible;enable-background:accumulate;font-family:Sans;-inkscape-font-specification:Sans"
       d="m 77.213724,92.828066 c -2.355022,0.0082 -4.71868,0.05122 -6.589369,0.0928 -0.935343,0.02078 -1.746759,0.04232 -2.366606,0.06979 -0.619846,0.02673 -1.014859,0.04751 -1.252908,0.09281 l -0.0464,0 -0.0464,0.02302 c -0.82807,0.394323 -1.600731,1.399993 -2.250594,2.320203 -0.649865,0.920284 -1.136899,1.763352 -1.136899,1.763352 l -0.0464,0.0928 0,0.09281 0,5.545308 0,0.0231 c 0,0 0.306882,3.04782 2.436211,5.24373 l 0.06956,0.0698 0.09281,0.0231 c 0.635757,0.17879 1.90272,0.22838 3.596312,0.25519 1.69359,0.0267 3.756178,0.0126 5.754097,-0.0231 3.971858,-0.0705 7.63536,-0.23031 7.679862,-0.23195 0.01463,0 0.03193,0 0.0464,0 0.289592,0.0156 0.559031,-0.0676 0.881677,-0.20885 0.338765,-0.14813 0.712408,-0.37332 1.136905,-0.62642 0.848979,-0.50636 1.858166,-1.1748 2.807443,-1.85615 1.898557,-1.36281 3.619514,-2.73792 3.619514,-2.73792 l 0.139213,-0.11597 0,-0.18562 0,-5.174084 0,-0.162377 -0.116011,-0.116047 c 0,0 -0.910351,-0.811958 -1.925767,-1.716874 -1.015416,-0.90499 -2.12765,-1.882966 -2.575422,-2.227395 l -0.02316,-0.02301 -0.02316,0 c -0.09583,-0.05197 -0.139041,-0.07878 -0.208819,-0.0928 -0.06979,-0.01411 -0.164447,-0.01262 -0.255222,-0.02302 -0.181547,-0.02153 -0.413797,-0.02969 -0.69606,-0.04604 -0.564532,-0.03267 -1.307426,-0.07424 -2.204197,-0.09281 -1.793535,-0.03786 -4.141537,-0.0542 -6.49656,-0.04677 z m 0,0.742464 c 2.350881,-0.0082 4.690085,0.0089 6.473359,0.04677 0.891639,0.01856 1.656392,0.03786 2.204197,0.06979 0.273903,0.01559 0.493278,0.05123 0.649656,0.06979 0.07819,0.0089 0.123947,0.0156 0.162414,0.02302 0.03846,0.0075 0.0756,0.02895 0.02316,0 0.395132,0.308644 1.466419,1.272808 2.459414,2.157826 0.95463,0.850789 1.71357,1.537123 1.809755,1.624066 l 0,4.826017 c -0.130071,0.10335 -1.652992,1.30369 -3.457098,2.59863 -0.939804,0.67459 -1.921253,1.34601 -2.737845,1.83299 -0.408295,0.24346 -0.775161,0.42907 -1.067292,0.55684 -0.292129,0.12778 -0.532339,0.18792 -0.556848,0.18563 l -0.02316,-0.0231 -0.02316,0 c 0,0 -3.739797,0.16097 -7.726267,0.23194 -1.993234,0.0356 -4.052065,0.0497 -5.730894,0.0231 -1.621989,-0.0253 -2.868831,-0.1309 -3.294686,-0.23202 -1.8141,-1.94155 -2.149635,-4.5683 -2.157788,-4.64039 l 0,-0.046 0,-5.382869 c 0.03653,-0.06311 0.443452,-0.773574 1.044092,-1.624141 0.619504,-0.877295 1.448472,-1.814137 1.948968,-2.064942 0.127711,-0.01931 0.493619,-0.04455 1.067292,-0.06979 0.610944,-0.02673 1.411373,-0.049 2.343404,-0.06979 1.864059,-0.04158 4.23849,-0.08486 6.589369,-0.0928 z"
       id="path5829"
       inkscape:connector-curvature="0" />
    <path
       style="fill:#b3a78d;fill-opacity:1;stroke:none"
       d="m 94.708041,93.965003 c -0.490762,0.375538 -1.036129,0.820646 -1.693744,1.531332 -0.88014,0.951245 -1.647343,1.879325 -1.647343,1.879325 l 0,5.01163 c 0.110561,0.4423 0.365307,0.90292 0.672858,1.34579 0.307552,0.44281 0.666103,0.86037 1.020889,1.22967 0.709566,0.73869 1.368921,1.25291 1.368921,1.25291 0.142143,0.30011 0.587776,0.71678 1.206505,1.1601 0.618722,0.44333 1.418716,0.90996 2.204191,1.34572 1.570958,0.8715 3.147642,1.59452 3.526702,1.53133 0.34747,0.15792 4.94342,0.27791 9.51282,0.30159 4.56941,0.0238 9.12734,-0.049 9.44323,-0.30159 0.2527,0 2.15844,-1.33695 4.03715,-2.76107 1.8787,-1.42405 3.73355,-2.93883 3.82832,-3.31785 l 0,-6.79823 c 0,0 -0.85484,-0.828367 -1.87936,-1.740113 -0.66269,-0.589739 -1.26684,-0.974411 -1.90256,-1.41536 -0.20059,1.13597 -0.59559,3.414965 -0.69606,3.96758 -0.12636,0.694944 -1.07876,0.248725 -1.64735,0.185616 -0.56858,-0.06311 0.88168,2.972377 0.88168,3.225117 0,0.25274 -1.50898,0.94233 -3.34109,0.62642 -1.8321,-0.31585 -1.71331,1.02957 -0.76567,2.48258 0.94764,1.45314 -5.62495,2.13487 -6.63577,0.99772 -1.01082,-1.13724 -1.25291,-1.20651 -1.25291,-1.20651 0,0 -3.99577,0.83 -4.50119,1.46177 -0.5054,0.63176 -0.92808,1.02089 -0.92808,1.02089 0,-8e-5 -0.65078,-0.70891 -1.34572,-0.83528 -0.69494,-0.12644 -1.49527,-0.81463 -1.36892,-1.06737 0.12635,-0.25265 -0.69605,-0.95124 -0.69605,-0.95124 l -2.08819,1.64738 -1.716948,-2.01862 c 0,0 -2.904158,-1.83803 -2.714635,-2.34335 0.189532,-0.50548 0.877769,-1.38292 1.067292,-2.204236 0.189532,-0.821238 -1.832959,-1.964261 -1.832959,-2.343364 0,-0.379027 0.207423,-0.831337 0.649658,-1.020887 0.355917,-0.152577 0.0084,-0.943377 -0.765667,-1.8794 z"
       id="path5871"
       inkscape:connector-curvature="0" />
    <path
       style="fill:#a59777;fill-opacity:1;stroke:none"
       d="m 93.872771,94.707467 c -0.328177,0.322748 -0.522717,0.426026 -0.858474,0.788868 -0.88014,0.951245 -1.647343,1.879325 -1.647343,1.879325 l 0,5.01163 c 0.110561,0.4423 0.365307,0.90292 0.672858,1.34579 0.307552,0.44281 0.666103,0.86037 1.020889,1.22967 0.709566,0.73869 1.368921,1.25291 1.368921,1.25291 0.142143,0.30011 0.587776,0.71678 1.206505,1.1601 0.618722,0.44333 1.418716,0.90996 2.204191,1.34572 1.570958,0.8715 3.147642,1.59452 3.526702,1.53133 0.34747,0.15792 4.94342,0.27791 9.51282,0.30159 4.56941,0.0238 9.12734,-0.049 9.44323,-0.30159 0.2527,0 2.15844,-1.33695 4.03715,-2.76107 1.8787,-1.42405 3.73355,-2.93883 3.82832,-3.31785 l 0,-6.79823 c 0,0 -0.85484,-0.828367 -1.87936,-1.740113 -0.41761,-0.371604 -0.77333,-0.538583 -1.20651,-0.881676 -0.18248,0.917685 -0.22498,3.879895 -0.39443,4.501193 -0.18951,0.694939 0.50905,1.532436 0.95129,2.227386 0.44221,0.69487 0.49896,2.27239 -0.0696,2.71467 -0.5686,0.44214 -3.14123,-0.0616 -3.45712,-0.44088 -0.31587,-0.37909 -0.82884,-0.4396 -0.76566,0.25527 0.0632,0.69487 -0.62644,2.64495 -0.62644,2.64495 l -1.53134,-0.81203 c 0,0 -2.01466,1.62666 -2.20419,1.8794 -0.18953,0.25267 -3.09594,0.69599 -4.10675,0.69599 -1.01082,8e-5 -3.33579,-0.8799 -3.96755,-2.45934 -0.63176,-1.57937 -2.22487,1.46279 -1.97218,2.15775 0.25271,0.69487 -2.64754,0.62151 -2.90025,0.11597 -0.2527,-0.50532 -0.44083,-1.76335 -0.44083,-1.76335 l -2.20419,0.88175 c 0,0 -4.043576,-0.88933 -4.106756,-1.64738 -0.06318,-0.75813 -1.533586,-1.8973 -2.923456,-2.52898 -1.389872,-0.63177 0.08109,-1.50149 0.649659,-2.57546 0.568579,-1.073974 -0.440838,-1.600905 -0.440838,-1.600905 0,-7.6e-5 -1.031227,-1.193363 -0.904882,-2.204227 0.06244,-0.499604 0.09922,-1.323814 0.185616,-2.088181 z"
       id="path5858"
       inkscape:connector-curvature="0" />
    <path
       style="fill:#837358;fill-opacity:1;stroke:none"
       d="m 127.28366,104.96275 c 0.19568,-0.20143 0.88243,-0.69903 0.90488,-0.78886 l 0,-6.79823 c 0,0 -0.43967,-0.396847 -0.58005,-0.533609 -0.36629,0.979236 -0.74246,1.874574 -0.74246,2.157824 0,0.505248 -1.1369,0.464043 -1.1369,0.464043 0,0 0.81067,2.523702 1.25291,3.155482 0.23585,0.33685 0.30056,1.38113 0.30162,2.34335 z"
       id="path5880"
       inkscape:connector-curvature="0" />
    <path
       style="fill:#837358;fill-opacity:1;stroke:none"
       d="m 92.109418,96.517223 c -0.257501,0.296169 -0.742464,0.858437 -0.742464,0.858437 l 0,5.01163 c 0.110561,0.4423 0.365307,0.90292 0.672858,1.34579 0.08861,0.12757 0.204683,0.2243 0.301627,0.348 0.130346,-1.2979 0.278423,-2.75098 0.278423,-2.9931 0,-0.37903 0.765667,-1.06722 0.765667,-1.06722 0,-7e-5 -0.70892,-1.957949 -0.835272,-2.273867 -0.05123,-0.128075 -0.237455,-0.685814 -0.440839,-1.22967 z"
       id="path5873"
       inkscape:connector-curvature="0" />
    <path
       style="font-size:medium;font-style:normal;font-variant:normal;font-weight:normal;font-stretch:normal;text-indent:0;text-align:start;text-decoration:none;line-height:normal;letter-spacing:normal;word-spacing:normal;text-transform:none;direction:ltr;block-progression:tb;writing-mode:lr-tb;text-anchor:start;baseline-shift:baseline;color:#000000;fill:#000000;fill-opacity:1;fill-rule:nonzero;stroke:none;stroke-width:1px;marker:none;visibility:visible;display:inline;overflow:visible;enable-background:accumulate;font-family:Sans;-inkscape-font-specification:Sans"
       d="m 109.44132,92.57288 c -3.31638,-0.01188 -6.62607,0.01262 -9.2344,0.09281 -1.304165,0.04009 -2.436175,0.09533 -3.294689,0.162378 -0.429256,0.03342 -0.800597,0.07424 -1.090488,0.116047 -0.268729,0.03934 -0.452344,0.06904 -0.626453,0.139212 -0.01623,0.0075 -0.03072,0.01781 -0.04644,0.02301 -0.169758,0.06162 -0.323215,0.153392 -0.487241,0.278423 -0.179171,0.136688 -0.370804,0.314953 -0.580051,0.51052 -0.418488,0.391056 -0.878949,0.889473 -1.322513,1.368882 -0.887133,0.958744 -1.670544,1.879399 -1.670544,1.879399 l -0.09281,0.09281 0,0.139137 0,5.011638 0,0.0468 0.02316,0.046 c 0.254642,1.01859 1.058018,1.97948 1.786555,2.73792 0.728536,0.75835 1.392121,1.2993 1.392121,1.2993 l 0.02318,-0.0231 c 0.242536,0.40331 0.631775,0.7715 1.206505,1.18327 0.636194,0.45587 1.432489,0.92792 2.227395,1.36894 0.794906,0.44104 1.592532,0.85266 2.250592,1.13687 0.329025,0.14219 0.611255,0.24776 0.858485,0.32491 0.17077,0.0535 0.31607,0.0594 0.46403,0.0698 0.1747,0.0793 0.24004,0.0728 0.41764,0.0928 0.17759,0.02 0.41789,0.0289 0.69606,0.046 0.55632,0.0349 1.2992,0.0653 2.18099,0.0928 1.76358,0.0542 4.04666,0.10417 6.33414,0.11597 2.28748,0.0119 4.57616,0 6.33415,-0.046 0.879,-0.0245 1.6261,-0.0728 2.18099,-0.11605 0.27745,-0.0215 0.51489,-0.0409 0.69607,-0.0698 0.0906,-0.0149 0.15884,-0.026 0.23201,-0.0468 0.008,0 0.0154,-0.0207 0.0232,-0.0231 0.0826,0 0.096,-0.032 0.13921,-0.046 0.0298,-0.0149 0.0547,-0.0163 0.0928,-0.046 0.0225,-0.0126 0.0661,-0.0104 0.0928,-0.023 0.0967,-0.0475 0.19695,-0.10892 0.32483,-0.18563 0.25576,-0.15354 0.59786,-0.36885 0.97449,-0.62648 0.75324,-0.51535 1.70152,-1.18736 2.64503,-1.90257 0.9435,-0.71522 1.88287,-1.45196 2.59862,-2.06502 0.35788,-0.30648 0.65399,-0.58135 0.88168,-0.81203 0.11384,-0.11537 0.20144,-0.22637 0.27842,-0.32482 0.077,-0.0985 0.14658,-0.16869 0.18561,-0.32483 l 0.0232,-0.046 0,-0.046 0,-6.798219 0,-0.162377 -0.11601,-0.0928 c 0,0 -0.84573,-0.843515 -1.87937,-1.763354 -1.02485,-0.912043 -2.19792,-1.880143 -3.06265,-2.227394 -0.003,0 0.003,-0.02228 0,-0.02302 -0.006,0 -0.017,0 -0.0232,0 -0.16914,-0.06607 -0.34235,-0.106543 -0.60326,-0.139137 -0.27045,-0.03415 -0.60748,-0.06385 -1.02088,-0.09281 -0.82681,-0.05865 -1.94133,-0.09622 -3.22508,-0.139287 -2.56749,-0.08605 -5.87162,-0.150498 -9.18799,-0.162377 z m 0,0.742465 c 3.31019,0.01188 6.60838,0.07669 9.1648,0.162376 1.27821,0.04306 2.36787,0.08168 3.17867,0.139287 0.40541,0.02895 0.749,0.06162 0.99769,0.09281 0.24867,0.03118 0.44239,0.07053 0.44084,0.06979 l 0,0.02301 c 0.58598,0.229274 1.81524,1.184528 2.83064,2.088108 0.96304,0.857026 1.68318,1.567713 1.76335,1.647379 l 0,6.542961 c 0.0154,-0.0616 0.003,-0.0163 -0.0463,0.046 -0.0491,0.0623 -0.13075,0.15265 -0.23203,0.25526 -0.20253,0.20514 -0.48665,0.46701 -0.83526,0.76563 -0.69724,0.59716 -1.61704,1.33287 -2.55223,2.04178 -0.93518,0.70889 -1.88312,1.39716 -2.62182,1.90256 -0.36935,0.25266 -0.69439,0.463 -0.92808,0.60325 -0.11684,0.0698 -0.21447,0.13127 -0.27842,0.16246 -0.0639,0.0312 -0.13115,0.0231 0,0.0231 l -0.13921,0 -0.0696,0.046 c -0.0306,0.009 -0.0891,0.0349 -0.16241,0.046 -0.1466,0.0238 -0.36044,0.0253 -0.62646,0.046 -0.53201,0.0416 -1.28573,0.0919 -2.15778,0.11604 -1.74408,0.0482 -4.00581,0.0578 -6.28774,0.046 -2.28193,-0.0119 -4.57986,-0.0616 -6.33415,-0.11596 -0.87715,-0.0267 -1.61534,-0.0587 -2.15779,-0.0928 -0.27122,-0.0171 -0.49257,-0.0289 -0.64966,-0.046 -0.15708,-0.0178 -0.29664,-0.0631 -0.20881,-0.0231 l -0.0928,-0.046 -0.11601,0.023 c 0.0574,-0.0101 -0.11736,-0.007 -0.32483,-0.0698 -0.20747,-0.0646 -0.47548,-0.1894 -0.78886,-0.32475 -0.626777,-0.27077 -1.428143,-0.65998 -2.204195,-1.09053 -0.776061,-0.43055 -1.533343,-0.8917 -2.134592,-1.32248 -0.601248,-0.43085 -1.047659,-0.88153 -1.113693,-1.02089 l -0.02318,-0.0698 -0.06954,-0.046 c 0,0 -0.631909,-0.51081 -1.322511,-1.22974 -0.690604,-0.71885 -1.413348,-1.66261 -1.60094,-2.413 l 0,-4.802787 c 0.08469,-0.09986 0.733585,-0.852942 1.554535,-1.740112 0.436576,-0.471836 0.903701,-0.952879 1.299309,-1.322553 0.197799,-0.184873 0.385549,-0.327946 0.53365,-0.4408 0.148101,-0.11293 0.265264,-0.181609 0.278428,-0.185618 l 0.02318,0 0.02318,-0.02301 c 0.02853,-0.01262 0.223457,-0.0542 0.48724,-0.09281 0.263784,-0.03861 0.601734,-0.08331 1.02089,-0.116048 0.838329,-0.06534 1.951001,-0.122506 3.24828,-0.162376 2.59455,-0.07975 5.92422,-0.104613 9.2344,-0.09281 z"
       id="path5860"
       inkscape:connector-curvature="0" />
    <path
       style="fill:#b3a78d;fill-opacity:1;stroke:none"
       d="m 131.11743,93.512551 c -0.41304,0.305135 -0.78808,0.675014 -1.10976,1.138225 -0.35426,0.510106 -0.64224,1.096792 -0.88212,1.621923 -0.4798,1.050443 -0.73984,1.934979 -0.73984,1.934979 l 0,8.536672 c 0,0 0.92912,1.6558 1.96342,3.38625 1.03431,1.73047 2.18149,3.5601 2.64638,3.86996 0.19369,0.27117 1.35046,0.3605 3.01629,0.36988 1.66582,0.009 3.8476,-0.0647 6.11795,-0.14223 2.27034,-0.0774 4.62288,-0.15307 6.63015,-0.14223 2.00726,0.0109 3.64784,0.0959 4.52443,0.36988 0.8766,0.27399 3.5488,1.84792 6.14641,3.35775 2.5976,1.50984 5.13348,2.95447 5.77648,3.01629 1.9678,0.18922 13.25862,-0.29311 14.68308,-0.51219 1.42446,-0.21918 4.30686,-1.41495 6.85779,-2.56101 2.55095,-1.14605 4.75209,-2.24804 4.75209,-2.24804 l 0,-17.300982 c 0.0775,-0.27117 -0.0881,-0.667363 -0.39838,-1.109722 -0.31035,-0.442359 -0.76016,-0.936347 -1.28051,-1.422778 -1.04068,-0.972863 -2.31656,-1.889089 -3.1301,-2.276449 -0.0703,-0.07831 -2.5154,-0.113731 -3.55695,-0.170733 l -0.31301,0.312965 c 0,0 -3.09857,3.727364 -2.78865,5.122007 0.30992,1.394732 1.08748,1.849292 1.70734,3.244022 0.61984,1.39455 -0.31302,0.71271 -0.31302,1.56501 0,0.8523 2.07246,0.8554 2.3049,0.31297 0.23245,-0.54234 2.02035,-0.54061 2.02035,-0.54061 0,0 -1.78311,6.5873 -2.24799,7.28462 -0.46489,0.69733 -2.93197,2.09297 -5.17892,2.24795 -2.24694,0.15499 -4.18126,-0.69859 -4.72362,-0.85357 -0.54237,-0.15508 -1.33571,-0.93425 -1.87807,-1.16673 -0.54237,-0.23247 -3.30978,-0.7179 -5.6342,0.0564 -2.32443,0.77482 -3.42224,0.72228 -4.89437,1.10982 -1.47212,0.38736 -1.62505,0 -1.93497,0 -0.30993,0 -6.88625,-1.39437 -6.88625,-1.39437 0,0 -1.95831,-0.0219 -3.58541,-0.79676 -1.62709,-0.7748 -1.37992,-1.24248 -2.07726,-1.70733 -0.69732,-0.46485 -4.02767,-1.21262 -5.57729,-0.82526 -1.54961,0.38746 -4.04686,0.30514 -4.66672,0.22764 -0.61984,-0.0774 -0.6908,-0.63038 -0.7683,-1.79265 -0.0775,-1.16217 -1.47627,-3.32898 -2.561,-4.72362 -1.08473,-1.394644 -0.13919,-1.79102 0.17074,-2.33336 0.30993,-0.54234 0.22764,-1.855849 0.22764,-2.475589 0,-0.535693 -0.69299,-0.811143 -2.41873,-2.589506 z"
       id="path5900"
       inkscape:connector-curvature="0" />
    <path
       style="fill:#a59777;fill-opacity:1;stroke:none"
       d="m 129.78003,95.049154 c -0.24515,0.399198 -0.47419,0.8289 -0.65448,1.223545 -0.4798,1.050443 -0.73984,1.934979 -0.73984,1.934979 l 0,8.536672 c 0,0 0.92912,1.6558 1.96342,3.38625 1.03431,1.73047 2.18149,3.5601 2.64638,3.86996 0.19369,0.27117 1.35046,0.3605 3.01629,0.36988 1.66582,0.009 3.8476,-0.0647 6.11795,-0.14223 2.27034,-0.0774 4.62288,-0.15307 6.63015,-0.14223 2.00726,0.0109 3.64784,0.0959 4.52443,0.36988 0.8766,0.27399 3.5488,1.84792 6.14641,3.35775 2.5976,1.50984 5.13348,2.95447 5.77648,3.01629 1.9678,0.18922 13.25862,-0.29311 14.68308,-0.51219 1.42446,-0.21918 4.30686,-1.41495 6.85779,-2.56101 2.55095,-1.14605 4.75209,-2.24804 4.75209,-2.24804 l 0,-17.300982 c 0.0775,-0.27117 -0.0881,-0.667363 -0.39838,-1.109722 -0.31035,-0.442359 -0.76016,-0.936347 -1.28051,-1.422778 -0.94729,-0.885629 -2.03356,-1.639042 -2.84555,-2.077215 -2.43037,1.092515 -4.95737,2.222543 -5.23582,2.36177 -0.4649,0.232471 -0.15977,1.933249 0.22764,2.47559 0.38741,0.542341 6.57633,1.016205 6.88625,2.333447 0.30992,1.31715 -1.30554,4.01665 -2.39027,5.17882 -1.08473,1.16218 -0.32261,2.15926 0.14228,3.24403 0.46488,1.08468 -0.30033,1.86195 -0.45529,3.10161 -0.15496,1.23984 -0.70935,1.25997 -2.64637,1.33746 -1.93702,0.0774 -4.18127,0.92624 -4.72363,1.08122 -0.54237,0.15499 -4.88306,0.15189 -5.8903,-0.31297 -1.00725,-0.46493 -0.77278,-0.92769 -1.93498,-1.93498 -1.16221,-1.00728 -1.53936,1.23594 -3.24394,2.4756 -1.70457,1.23975 -7.83934,-1.1619 -8.53667,-1.39428 -0.69733,-0.23247 -1.5366,-1.71189 -1.5366,-2.87397 0,-1.16226 -3.34784,0.48033 -5.20738,1.56501 -1.85953,1.08477 -6.12412,-0.87725 -6.74397,-1.10972 -0.61984,-0.23247 -0.61472,-2.01074 -1.62197,-2.47569 -1.00725,-0.46484 -5.42029,1.47661 -7.51227,1.16664 -2.09198,-0.30987 -1.62813,-0.77754 -2.24799,-1.70733 -0.61983,-0.92979 0.38741,-0.999 0,-1.30887 -0.3874,-0.30996 -3.10166,-3.56756 -3.10166,-5.34965 0,-1.78218 0.93424,-2.624009 1.16668,-3.244022 0.23244,-0.61974 -1.37684,-1.572933 -1.76424,-1.650332 -0.19605,-0.03915 -0.49005,-0.650062 -0.82521,-1.508192 z"
       id="path5887"
       inkscape:connector-curvature="0" />
    <path
       style="fill:#837358;fill-opacity:1;stroke:none"
       d="m 128.76682,96.457393 c -0.17038,0.460624 -0.4048,1.047739 -0.4048,1.047739 l 0,7.143688 c 0,0 0.72205,1.26992 1.47637,2.54795 0.41672,-0.97224 0.85851,-1.94135 1.07154,-2.04787 0.38903,-0.19453 -0.37039,-2.27789 -0.50006,-2.66696 -0.12967,-0.389 -0.60189,-1.16799 -0.66674,-1.88114 -0.0649,-0.7133 -0.17328,-2.97512 -0.23812,-3.428963 -0.0397,-0.278203 -0.34956,-0.452699 -0.73819,-0.714444 z"
       id="path5902"
       inkscape:connector-curvature="0" />
    <path
       style="fill:#837358;fill-opacity:1;stroke:none"
       d="m 191.50018,113.23222 0,-15.024542 c 0.0201,-0.07012 -0.10335,-0.199325 -0.11383,-0.284464 -1.02745,0.229738 -2.12663,0.52076 -2.53254,0.825166 -0.92978,0.69732 1.47969,3.32443 1.47969,3.5569 0,0.23247 -0.17074,3.64231 -0.17074,3.64231 0,0 -0.53107,3.93625 -0.99594,4.86596 -0.46488,0.92979 0.23073,2.33635 0.54066,2.64632 0.0895,0.0893 1.0759,-0.11647 1.7927,-0.22765 z"
       id="path5911"
       inkscape:connector-curvature="0" />
    <path
       style="fill:#837358;fill-opacity:1;stroke:none"
       d="m 162.02019,119.15098 c 1.20381,0.66008 2.8316,1.64478 3.18703,1.67892 1.9678,0.18922 13.25862,-0.29311 14.68308,-0.51219 1.42446,-0.21918 4.30686,-1.41495 6.85779,-2.56101 0.38291,-0.172 0.35076,-0.17537 0.7114,-0.34147 -0.27742,-0.30731 -0.86656,-0.89928 -0.93904,-0.99598 -0.46488,-0.61984 -2.55141,-0.4063 -3.01629,-0.48371 -0.46489,-0.0774 -4.24916,1.08615 -5.17892,0.85367 -0.92977,-0.23238 -5.35826,0.62557 -9.07733,2.02031 -3.71907,1.39464 -1.5366,-1.16664 -1.5366,-1.16664 0,0 -3.26759,0.77919 -3.50003,1.16664 -0.0353,0.0592 -1.62379,0.23702 -2.19109,0.34146 z"
       id="path5909"
       inkscape:connector-curvature="0" />
    <path
       style="font-size:medium;font-style:normal;font-variant:normal;font-weight:normal;font-stretch:normal;text-indent:0;text-align:start;text-decoration:none;line-height:normal;letter-spacing:normal;word-spacing:normal;text-transform:none;direction:ltr;block-progression:tb;writing-mode:lr-tb;text-anchor:start;baseline-shift:baseline;color:#000000;fill:#000000;fill-opacity:1;fill-rule:nonzero;stroke:none;stroke-width:1px;marker:none;visibility:visible;display:inline;overflow:visible;enable-background:accumulate;font-family:Sans;-inkscape-font-specification:Sans"
       d="m 159.06082,92.45974 c -6.8306,0.01912 -13.67608,0.08832 -18.86605,0.170643 -2.595,0.04098 -4.7789,0.09105 -6.3456,0.142324 -0.78334,0.02549 -1.42449,0.05737 -1.87807,0.08559 -0.22678,0.01457 -0.39883,0.01275 -0.54065,0.02823 -0.0709,0.0091 -0.14265,0.01821 -0.19919,0.02822 -0.0565,0.01006 -0.0876,0 -0.19919,0.05646 l -0.0284,0.02823 -0.0284,0 c -1.06714,0.711435 -1.7806,1.987703 -2.27645,3.073204 -0.49584,1.085501 -0.73984,2.020392 -0.73984,2.020301 l -0.0284,0.05737 0,0.05646 0,8.53667 0,0.14233 0.057,0.0856 c 0,0 0.92449,1.67646 1.96344,3.41466 0.51947,0.86916 1.08208,1.75678 1.56505,2.47569 0.24149,0.3594 0.45345,0.6557 0.65448,0.91057 0.16183,0.20516 0.29841,0.35394 0.45529,0.48371 0.038,0.0318 0.0721,0.0865 0.11383,0.11382 l 0.0284,-0.0282 c 0.13289,0.11518 0.2749,0.21135 0.42683,0.25606 0.20258,0.0601 0.43644,0.11099 0.71139,0.14231 0.54992,0.0628 1.2646,0.0811 2.10572,0.0856 1.68223,0.0103 3.84804,-0.0647 6.11795,-0.14224 2.26991,-0.0774 4.63645,-0.15298 6.63014,-0.14223 1.99371,0.0109 3.66041,0.10699 4.41062,0.34147 0.32798,0.10242 1.24138,0.58495 2.33336,1.19503 1.09197,0.61019 2.39971,1.3789 3.69923,2.13422 1.29952,0.75533 2.59262,1.48288 3.64231,2.0488 0.52483,0.28301 0.98126,0.53543 1.36587,0.71134 0.38459,0.17603 0.63714,0.28401 0.93903,0.31307 1.10284,0.10608 4.37734,0.0383 7.62609,-0.0856 1.62439,-0.0619 3.23221,-0.15462 4.52444,-0.22765 1.29224,-0.0729 2.22567,-0.13439 2.64637,-0.19914 1.57952,-0.24294 4.43963,-1.43907 7.00007,-2.58941 2.56044,-1.15043 4.75209,-2.24804 4.75209,-2.24804 l 0.2561,-0.14223 0,-0.28465 0,-17.187161 c 0.0118,-0.04098 -0.007,-0.07285 0,-0.113823 0.0844,-0.489618 -0.14142,-0.918501 -0.45529,-1.365868 -0.33986,-0.484336 -0.83046,-0.979145 -1.36587,-1.47969 -1.02245,-0.955743 -2.20875,-1.822798 -3.10166,-2.276448 -0.0423,-0.02095 -0.1015,-0.09434 -0.14228,-0.113822 l 0,0.02822 c -0.0429,-0.02003 -0.10872,-0.07466 -0.14227,-0.08559 -0.0671,-0.02185 -0.12642,-0.04371 -0.19919,-0.05737 -0.14555,-0.02641 -0.31707,-0.03642 -0.54065,-0.05646 -0.44716,-0.04188 -1.0755,-0.08104 -1.84963,-0.113822 -1.54824,-0.06556 -3.70743,-0.105992 -6.28867,-0.142324 -5.16249,-0.07285 -11.97854,-0.104717 -18.80915,-0.08559 z m 0,0.910579 c 6.82716,-0.01912 13.62722,0.01275 18.78068,0.08559 2.57673,0.03642 4.75668,0.0774 6.28868,0.142323 0.76599,0.03187 1.37446,0.07466 1.79271,0.113822 0.20911,0.01912 0.35622,0.03915 0.45528,0.05646 0.0149,0 0.0166,0 0.0284,0 l 0.0853,0.02822 c 0.72477,0.345112 2.00574,1.274813 3.01629,2.219538 0.50527,0.472317 0.94274,0.965578 1.22359,1.365867 0.28084,0.400291 0.34165,0.710707 0.34146,0.711344 l -0.0284,0.05737 0,0.05646 0,17.016525 c -0.21685,0.10745 -2.0622,1.05345 -4.46752,2.13413 -2.54145,1.14177 -5.50302,2.30876 -6.77244,2.50408 -0.29153,0.0446 -1.27633,0.12667 -2.561,0.19914 -1.28466,0.0729 -2.90506,0.16601 -4.52443,0.22765 -3.23875,0.12338 -6.59041,0.16855 -7.45536,0.0856 -0.0196,0 -0.32943,-0.0656 -0.68294,-0.22764 -0.35352,-0.16172 -0.79392,-0.40521 -1.30895,-0.68293 -1.03008,-0.55537 -2.31578,-1.2943 -3.61387,-2.0488 -1.29807,-0.75451 -2.6231,-1.51694 -3.72767,-2.13422 -1.10458,-0.61719 -1.95548,-1.08058 -2.50409,-1.25204 -1.00299,-0.31343 -2.64589,-0.38745 -4.66672,-0.39829 -2.02083,-0.011 -4.38783,0.0647 -6.65861,0.14223 -2.27077,0.0774 -4.44008,0.15161 -6.08949,0.14223 -0.8247,-0.009 -1.53204,-0.0292 -2.02034,-0.0856 -0.24416,-0.0282 -0.4217,-0.0783 -0.54066,-0.11382 -0.11896,-0.0355 -0.153,-0.0947 -0.0853,0 l -0.057,-0.0564 -0.0569,-0.0564 c -0.0183,-0.0118 -0.19217,-0.17302 -0.36992,-0.39838 -0.17777,-0.22537 -0.39248,-0.50601 -0.62603,-0.85367 -0.46709,-0.69523 -0.9933,-1.58577 -1.50815,-2.44718 -1.00256,-1.67737 -1.86012,-3.18894 -1.90652,-3.27244 l 0,-8.309023 c 0,0 0.2192,-0.862773 0.68294,-1.877977 0.45214,-0.98989 1.13832,-2.073478 1.90652,-2.617915 0.0103,-0.0091 0.0186,-0.02185 0.0284,-0.02822 0.023,0 0.0518,0 0.0853,0 0.1164,-0.01275 0.26511,-0.01457 0.48375,-0.02822 0.43725,-0.02732 1.07104,-0.05919 1.84961,-0.08559 1.55713,-0.051 3.72509,-0.101162 6.31713,-0.142323 5.18409,-0.08195 12.03889,-0.151339 18.86606,-0.170642 z"
       id="path5889"
       inkscape:connector-curvature="0" />
  </g>
</svg>
